<svg xmlns="http://www.w3.org/2000/svg" width="768" height="768">
  <style>
  text {
    font-family: "JetBrains Mono", monospace;
    font-size: 24px;
    fill: #f7fbf3;
    text-anchor: middle;
    dominant-baseline: central;
  }
  </style>
  <text x="16" y="16">0</text>
  <text x="48" y="16">0</text>
  <text x="80" y="16">2</text>
  <text x="112" y="16">1</text>
  <text x="144" y="16">1</text>
  <text x="176" y="16">1</text>
  <text x="208" y="16">0</text>
  <text x="240" y="16">4</text>
  <text x="272" y="16">0</text>
  <text x="304" y="16">4</text>
  <text x="336" y="16">3</text>
  <text x="368" y="16">0</text>
  <text x="400" y="16">0</text>
  <text x="432" y="16">0</text>
  <text x="464" y="16">1</text>
  <text x="496" y="16">1</text>
  <text x="528" y="16">4</text>
  <text x="560" y="16">4</text>
  <text x="592" y="16">0</text>
  <text x="624" y="16">4</text>
  <text x="656" y="16">1</text>
  <text x="688" y="16">4</text>
  <text x="720" y="16">3</text>
  <text x="752" y="16">1</text>
  <text x="16" y="48">3</text>
  <text x="48" y="48">4</text>
  <text x="80" y="48">2</text>
  <text x="112" y="48">0</text>
  <text x="144" y="48">1</text>
  <text x="176" y="48">3</text>
  <text x="208" y="48">2</text>
  <text x="240" y="48">2</text>
  <text x="272" y="48">1</text>
  <text x="304" y="48">1</text>
  <text x="336" y="48">2</text>
  <text x="368" y="48">0</text>
  <text x="400" y="48">0</text>
  <text x="432" y="48">3</text>
  <text x="464" y="48">0</text>
  <text x="496" y="48">2</text>
  <text x="528" y="48">2</text>
  <text x="560" y="48">4</text>
  <text x="592" y="48">2</text>
  <text x="624" y="48">0</text>
  <text x="656" y="48">3</text>
  <text x="688" y="48">4</text>
  <text x="720" y="48">0</text>
  <text x="752" y="48">3</text>
  <text x="16" y="80">0</text>
  <text x="48" y="80">4</text>
  <text x="80" y="80">2</text>
  <text x="112" y="80">4</text>
  <text x="144" y="80">2</text>
  <text x="176" y="80">4</text>
  <text x="208" y="80">1</text>
  <text x="240" y="80">0</text>
  <text x="272" y="80">0</text>
  <text x="304" y="80">1</text>
  <text x="336" y="80">2</text>
  <text x="368" y="80">0</text>
  <text x="400" y="80">1</text>
  <text x="432" y="80">0</text>
  <text x="464" y="80">3</text>
  <text x="496" y="80">2</text>
  <text x="528" y="80">3</text>
  <text x="560" y="80">2</text>
  <text x="592" y="80">1</text>
  <text x="624" y="80">2</text>
  <text x="656" y="80">2</text>
  <text x="688" y="80">1</text>
  <text x="720" y="80">2</text>
  <text x="752" y="80">0</text>
  <text x="16" y="112">4</text>
  <text x="48" y="112">1</text>
  <text x="80" y="112">4</text>
  <text x="112" y="112">1</text>
  <text x="144" y="112">1</text>
  <text x="176" y="112">3</text>
  <text x="208" y="112">3</text>
  <text x="240" y="112">2</text>
  <text x="272" y="112">4</text>
  <text x="304" y="112">1</text>
  <text x="336" y="112">2</text>
  <text x="368" y="112">0</text>
  <text x="400" y="112">1</text>
  <text x="432" y="112">0</text>
  <text x="464" y="112">2</text>
  <text x="496" y="112">3</text>
  <text x="528" y="112">2</text>
  <text x="560" y="112">0</text>
  <text x="592" y="112">1</text>
  <text x="624" y="112">4</text>
  <text x="656" y="112">2</text>
  <text x="688" y="112">1</text>
  <text x="720" y="112">3</text>
  <text x="752" y="112">3</text>
  <text x="16" y="144">3</text>
  <text x="48" y="144">1</text>
  <text x="80" y="144">2</text>
  <text x="112" y="144">1</text>
  <text x="144" y="144">1</text>
  <text x="176" y="144">4</text>
  <text x="208" y="144">4</text>
  <text x="240" y="144">2</text>
  <text x="272" y="144">4</text>
  <text x="304" y="144">3</text>
  <text x="336" y="144">4</text>
  <text x="368" y="144">3</text>
  <text x="400" y="144">2</text>
  <text x="432" y="144">1</text>
  <text x="464" y="144">1</text>
  <text x="496" y="144">4</text>
  <text x="528" y="144">3</text>
  <text x="560" y="144">0</text>
  <text x="592" y="144">0</text>
  <text x="624" y="144">0</text>
  <text x="656" y="144">1</text>
  <text x="688" y="144">1</text>
  <text x="720" y="144">3</text>
  <text x="752" y="144">4</text>
  <text x="16" y="176">0</text>
  <text x="48" y="176">3</text>
  <text x="80" y="176">3</text>
  <text x="112" y="176">4</text>
  <text x="144" y="176">3</text>
  <text x="176" y="176">4</text>
  <text x="208" y="176">2</text>
  <text x="240" y="176">4</text>
  <text x="272" y="176">0</text>
  <text x="304" y="176">0</text>
  <text x="336" y="176">4</text>
  <text x="368" y="176">2</text>
  <text x="400" y="176">2</text>
  <text x="432" y="176">0</text>
  <text x="464" y="176">2</text>
  <text x="496" y="176">3</text>
  <text x="528" y="176">1</text>
  <text x="560" y="176">3</text>
  <text x="592" y="176">0</text>
  <text x="624" y="176">2</text>
  <text x="656" y="176">4</text>
  <text x="688" y="176">1</text>
  <text x="720" y="176">4</text>
  <text x="752" y="176">0</text>
  <text x="16" y="208">2</text>
  <text x="48" y="208">4</text>
  <text x="80" y="208">4</text>
  <text x="112" y="208">1</text>
  <text x="144" y="208">1</text>
  <text x="176" y="208">2</text>
  <text x="208" y="208">1</text>
  <text x="240" y="208">4</text>
  <text x="272" y="208">4</text>
  <text x="304" y="208">0</text>
  <text x="336" y="208">4</text>
  <text x="368" y="208">2</text>
  <text x="400" y="208">3</text>
  <text x="432" y="208">0</text>
  <text x="464" y="208">0</text>
  <text x="496" y="208">2</text>
  <text x="528" y="208">2</text>
  <text x="560" y="208">1</text>
  <text x="592" y="208">0</text>
  <text x="624" y="208">1</text>
  <text x="656" y="208">4</text>
  <text x="688" y="208">0</text>
  <text x="720" y="208">0</text>
  <text x="752" y="208">3</text>
  <text x="16" y="240">0</text>
  <text x="48" y="240">4</text>
  <text x="80" y="240">1</text>
  <text x="112" y="240">1</text>
  <text x="144" y="240">3</text>
  <text x="176" y="240">4</text>
  <text x="208" y="240">1</text>
  <text x="240" y="240">2</text>
  <text x="272" y="240">4</text>
  <text x="304" y="240">4</text>
  <text x="336" y="240">3</text>
  <text x="368" y="240">1</text>
  <text x="400" y="240">4</text>
  <text x="432" y="240">1</text>
  <text x="464" y="240">2</text>
  <text x="496" y="240">3</text>
  <text x="528" y="240">2</text>
  <text x="560" y="240">3</text>
  <text x="592" y="240">4</text>
  <text x="624" y="240">3</text>
  <text x="656" y="240">0</text>
  <text x="688" y="240">1</text>
  <text x="720" y="240">1</text>
  <text x="752" y="240">0</text>
  <text x="16" y="272">2</text>
  <text x="48" y="272">0</text>
  <text x="80" y="272">4</text>
  <text x="112" y="272">4</text>
  <text x="144" y="272">1</text>
  <text x="176" y="272">4</text>
  <text x="208" y="272">1</text>
  <text x="240" y="272">0</text>
  <text x="272" y="272">0</text>
  <text x="304" y="272">0</text>
  <text x="336" y="272">1</text>
  <text x="368" y="272">0</text>
  <text x="400" y="272">0</text>
  <text x="432" y="272">2</text>
  <text x="464" y="272">0</text>
  <text x="496" y="272">4</text>
  <text x="528" y="272">1</text>
  <text x="560" y="272">2</text>
  <text x="592" y="272">3</text>
  <text x="624" y="272">1</text>
  <text x="656" y="272">4</text>
  <text x="688" y="272">1</text>
  <text x="720" y="272">4</text>
  <text x="752" y="272">4</text>
  <text x="16" y="304">3</text>
  <text x="48" y="304">1</text>
  <text x="80" y="304">3</text>
  <text x="112" y="304">3</text>
  <text x="144" y="304">1</text>
  <text x="176" y="304">0</text>
  <text x="208" y="304">0</text>
  <text x="240" y="304">3</text>
  <text x="272" y="304">2</text>
  <text x="304" y="304">3</text>
  <text x="336" y="304">3</text>
  <text x="368" y="304">3</text>
  <text x="400" y="304">0</text>
  <text x="432" y="304">0</text>
  <text x="464" y="304">0</text>
  <text x="496" y="304">3</text>
  <text x="528" y="304">2</text>
  <text x="560" y="304">0</text>
  <text x="592" y="304">1</text>
  <text x="624" y="304">1</text>
  <text x="656" y="304">1</text>
  <text x="688" y="304">4</text>
  <text x="720" y="304">3</text>
  <text x="752" y="304">1</text>
  <text x="16" y="336">3</text>
  <text x="48" y="336">1</text>
  <text x="80" y="336">2</text>
  <text x="112" y="336">3</text>
  <text x="144" y="336">1</text>
  <text x="176" y="336">0</text>
  <text x="208" y="336">3</text>
  <text x="240" y="336">4</text>
  <text x="272" y="336">0</text>
  <text x="304" y="336">0</text>
  <text x="336" y="336">4</text>
  <text x="368" y="336">0</text>
  <text x="400" y="336">0</text>
  <text x="432" y="336">1</text>
  <text x="464" y="336">1</text>
  <text x="496" y="336">3</text>
  <text x="528" y="336">3</text>
  <text x="560" y="336">3</text>
  <text x="592" y="336">1</text>
  <text x="624" y="336">3</text>
  <text x="656" y="336">0</text>
  <text x="688" y="336">1</text>
  <text x="720" y="336">3</text>
  <text x="752" y="336">0</text>
  <text x="16" y="368">3</text>
  <text x="48" y="368">2</text>
  <text x="80" y="368">3</text>
  <text x="112" y="368">2</text>
  <text x="144" y="368">3</text>
  <text x="176" y="368">4</text>
  <text x="208" y="368">3</text>
  <text x="240" y="368">1</text>
  <text x="272" y="368">1</text>
  <text x="304" y="368">2</text>
  <text x="336" y="368">1</text>
  <text x="368" y="368">0</text>
  <text x="400" y="368">4</text>
  <text x="432" y="368">4</text>
  <text x="464" y="368">0</text>
  <text x="496" y="368">2</text>
  <text x="528" y="368">0</text>
  <text x="560" y="368">0</text>
  <text x="592" y="368">4</text>
  <text x="624" y="368">3</text>
  <text x="656" y="368">4</text>
  <text x="688" y="368">4</text>
  <text x="720" y="368">1</text>
  <text x="752" y="368">0</text>
  <text x="16" y="400">4</text>
  <text x="48" y="400">0</text>
  <text x="80" y="400">1</text>
  <text x="112" y="400">0</text>
  <text x="144" y="400">4</text>
  <text x="176" y="400">0</text>
  <text x="208" y="400">1</text>
  <text x="240" y="400">3</text>
  <text x="272" y="400">0</text>
  <text x="304" y="400">4</text>
  <text x="336" y="400">1</text>
  <text x="368" y="400">4</text>
  <text x="400" y="400">4</text>
  <text x="432" y="400">0</text>
  <text x="464" y="400">4</text>
  <text x="496" y="400">0</text>
  <text x="528" y="400">3</text>
  <text x="560" y="400">4</text>
  <text x="592" y="400">4</text>
  <text x="624" y="400">4</text>
  <text x="656" y="400">2</text>
  <text x="688" y="400">2</text>
  <text x="720" y="400">1</text>
  <text x="752" y="400">2</text>
  <text x="16" y="432">1</text>
  <text x="48" y="432">2</text>
  <text x="80" y="432">3</text>
  <text x="112" y="432">1</text>
  <text x="144" y="432">2</text>
  <text x="176" y="432">3</text>
  <text x="208" y="432">2</text>
  <text x="240" y="432">0</text>
  <text x="272" y="432">0</text>
  <text x="304" y="432">3</text>
  <text x="336" y="432">4</text>
  <text x="368" y="432">4</text>
  <text x="400" y="432">0</text>
  <text x="432" y="432">0</text>
  <text x="464" y="432">4</text>
  <text x="496" y="432">1</text>
  <text x="528" y="432">4</text>
  <text x="560" y="432">2</text>
  <text x="592" y="432">1</text>
  <text x="624" y="432">2</text>
  <text x="656" y="432">0</text>
  <text x="688" y="432">1</text>
  <text x="720" y="432">2</text>
  <text x="752" y="432">2</text>
  <text x="16" y="464">1</text>
  <text x="48" y="464">3</text>
  <text x="80" y="464">4</text>
  <text x="112" y="464">2</text>
  <text x="144" y="464">4</text>
  <text x="176" y="464">4</text>
  <text x="208" y="464">0</text>
  <text x="240" y="464">4</text>
  <text x="272" y="464">2</text>
  <text x="304" y="464">0</text>
  <text x="336" y="464">1</text>
  <text x="368" y="464">2</text>
  <text x="400" y="464">0</text>
  <text x="432" y="464">0</text>
  <text x="464" y="464">4</text>
  <text x="496" y="464">1</text>
  <text x="528" y="464">2</text>
  <text x="560" y="464">2</text>
  <text x="592" y="464">4</text>
  <text x="624" y="464">1</text>
  <text x="656" y="464">2</text>
  <text x="688" y="464">1</text>
  <text x="720" y="464">2</text>
  <text x="752" y="464">4</text>
  <text x="16" y="496">3</text>
  <text x="48" y="496">2</text>
  <text x="80" y="496">0</text>
  <text x="112" y="496">0</text>
  <text x="144" y="496">3</text>
  <text x="176" y="496">2</text>
  <text x="208" y="496">0</text>
  <text x="240" y="496">0</text>
  <text x="272" y="496">2</text>
  <text x="304" y="496">1</text>
  <text x="336" y="496">2</text>
  <text x="368" y="496">1</text>
  <text x="400" y="496">3</text>
  <text x="432" y="496">4</text>
  <text x="464" y="496">3</text>
  <text x="496" y="496">4</text>
  <text x="528" y="496">0</text>
  <text x="560" y="496">0</text>
  <text x="592" y="496">0</text>
  <text x="624" y="496">1</text>
  <text x="656" y="496">4</text>
  <text x="688" y="496">0</text>
  <text x="720" y="496">2</text>
  <text x="752" y="496">4</text>
  <text x="16" y="528">4</text>
  <text x="48" y="528">1</text>
  <text x="80" y="528">3</text>
  <text x="112" y="528">1</text>
  <text x="144" y="528">0</text>
  <text x="176" y="528">2</text>
  <text x="208" y="528">2</text>
  <text x="240" y="528">0</text>
  <text x="272" y="528">2</text>
  <text x="304" y="528">1</text>
  <text x="336" y="528">1</text>
  <text x="368" y="528">0</text>
  <text x="400" y="528">2</text>
  <text x="432" y="528">4</text>
  <text x="464" y="528">3</text>
  <text x="496" y="528">4</text>
  <text x="528" y="528">1</text>
  <text x="560" y="528">1</text>
  <text x="592" y="528">1</text>
  <text x="624" y="528">1</text>
  <text x="656" y="528">3</text>
  <text x="688" y="528">0</text>
  <text x="720" y="528">1</text>
  <text x="752" y="528">2</text>
  <text x="16" y="560">3</text>
  <text x="48" y="560">1</text>
  <text x="80" y="560">2</text>
  <text x="112" y="560">1</text>
  <text x="144" y="560">0</text>
  <text x="176" y="560">3</text>
  <text x="208" y="560">0</text>
  <text x="240" y="560">3</text>
  <text x="272" y="560">1</text>
  <text x="304" y="560">1</text>
  <text x="336" y="560">3</text>
  <text x="368" y="560">2</text>
  <text x="400" y="560">2</text>
  <text x="432" y="560">1</text>
  <text x="464" y="560">1</text>
  <text x="496" y="560">0</text>
  <text x="528" y="560">1</text>
  <text x="560" y="560">3</text>
  <text x="592" y="560">2</text>
  <text x="624" y="560">2</text>
  <text x="656" y="560">0</text>
  <text x="688" y="560">2</text>
  <text x="720" y="560">2</text>
  <text x="752" y="560">4</text>
  <text x="16" y="592">3</text>
  <text x="48" y="592">4</text>
  <text x="80" y="592">2</text>
  <text x="112" y="592">0</text>
  <text x="144" y="592">0</text>
  <text x="176" y="592">2</text>
  <text x="208" y="592">1</text>
  <text x="240" y="592">4</text>
  <text x="272" y="592">2</text>
  <text x="304" y="592">0</text>
  <text x="336" y="592">0</text>
  <text x="368" y="592">4</text>
  <text x="400" y="592">3</text>
  <text x="432" y="592">2</text>
  <text x="464" y="592">2</text>
  <text x="496" y="592">3</text>
  <text x="528" y="592">4</text>
  <text x="560" y="592">4</text>
  <text x="592" y="592">0</text>
  <text x="624" y="592">3</text>
  <text x="656" y="592">4</text>
  <text x="688" y="592">1</text>
  <text x="720" y="592">2</text>
  <text x="752" y="592">0</text>
  <text x="16" y="624">3</text>
  <text x="48" y="624">0</text>
  <text x="80" y="624">4</text>
  <text x="112" y="624">4</text>
  <text x="144" y="624">1</text>
  <text x="176" y="624">2</text>
  <text x="208" y="624">3</text>
  <text x="240" y="624">0</text>
  <text x="272" y="624">2</text>
  <text x="304" y="624">4</text>
  <text x="336" y="624">2</text>
  <text x="368" y="624">0</text>
  <text x="400" y="624">2</text>
  <text x="432" y="624">4</text>
  <text x="464" y="624">2</text>
  <text x="496" y="624">3</text>
  <text x="528" y="624">2</text>
  <text x="560" y="624">3</text>
  <text x="592" y="624">2</text>
  <text x="624" y="624">4</text>
  <text x="656" y="624">1</text>
  <text x="688" y="624">1</text>
  <text x="720" y="624">3</text>
  <text x="752" y="624">3</text>
  <text x="16" y="656">1</text>
  <text x="48" y="656">4</text>
  <text x="80" y="656">4</text>
  <text x="112" y="656">2</text>
  <text x="144" y="656">3</text>
  <text x="176" y="656">4</text>
  <text x="208" y="656">0</text>
  <text x="240" y="656">2</text>
  <text x="272" y="656">2</text>
  <text x="304" y="656">1</text>
  <text x="336" y="656">3</text>
  <text x="368" y="656">4</text>
  <text x="400" y="656">4</text>
  <text x="432" y="656">2</text>
  <text x="464" y="656">3</text>
  <text x="496" y="656">3</text>
  <text x="528" y="656">3</text>
  <text x="560" y="656">1</text>
  <text x="592" y="656">4</text>
  <text x="624" y="656">3</text>
  <text x="656" y="656">1</text>
  <text x="688" y="656">0</text>
  <text x="720" y="656">2</text>
  <text x="752" y="656">4</text>
  <text x="16" y="688">4</text>
  <text x="48" y="688">2</text>
  <text x="80" y="688">0</text>
  <text x="112" y="688">1</text>
  <text x="144" y="688">2</text>
  <text x="176" y="688">1</text>
  <text x="208" y="688">1</text>
  <text x="240" y="688">1</text>
  <text x="272" y="688">0</text>
  <text x="304" y="688">0</text>
  <text x="336" y="688">1</text>
  <text x="368" y="688">3</text>
  <text x="400" y="688">4</text>
  <text x="432" y="688">0</text>
  <text x="464" y="688">3</text>
  <text x="496" y="688">3</text>
  <text x="528" y="688">4</text>
  <text x="560" y="688">1</text>
  <text x="592" y="688">3</text>
  <text x="624" y="688">3</text>
  <text x="656" y="688">3</text>
  <text x="688" y="688">1</text>
  <text x="720" y="688">1</text>
  <text x="752" y="688">0</text>
  <text x="16" y="720">0</text>
  <text x="48" y="720">3</text>
  <text x="80" y="720">1</text>
  <text x="112" y="720">1</text>
  <text x="144" y="720">4</text>
  <text x="176" y="720">3</text>
  <text x="208" y="720">0</text>
  <text x="240" y="720">4</text>
  <text x="272" y="720">1</text>
  <text x="304" y="720">0</text>
  <text x="336" y="720">3</text>
  <text x="368" y="720">1</text>
  <text x="400" y="720">3</text>
  <text x="432" y="720">4</text>
  <text x="464" y="720">4</text>
  <text x="496" y="720">4</text>
  <text x="528" y="720">2</text>
  <text x="560" y="720">3</text>
  <text x="592" y="720">4</text>
  <text x="624" y="720">4</text>
  <text x="656" y="720">3</text>
  <text x="688" y="720">4</text>
  <text x="720" y="720">3</text>
  <text x="752" y="720">1</text>
  <text x="16" y="752">3</text>
  <text x="48" y="752">3</text>
  <text x="80" y="752">2</text>
  <text x="112" y="752">1</text>
  <text x="144" y="752">2</text>
  <text x="176" y="752">4</text>
  <text x="208" y="752">3</text>
  <text x="240" y="752">1</text>
  <text x="272" y="752">2</text>
  <text x="304" y="752">3</text>
  <text x="336" y="752">0</text>
  <text x="368" y="752">2</text>
  <text x="400" y="752">1</text>
  <text x="432" y="752">2</text>
  <text x="464" y="752">2</text>
  <text x="496" y="752">2</text>
  <text x="528" y="752">4</text>
  <text x="560" y="752">0</text>
  <text x="592" y="752">1</text>
  <text x="624" y="752">1</text>
  <text x="656" y="752">1</text>
  <text x="688" y="752">3</text>
  <text x="720" y="752">1</text>
  <text x="752" y="752">1</text>
</svg>
